<svg width="125" height="38" viewBox="0 0 125 38" fill="none" xmlns="http://www.w3.org/2000/svg">
<path d="M2.808 14.2H12.432V15.976H4.8V21.712H11.952V23.488H4.8V31H2.808V14.2ZM18.2306 14.2H29.7506V15.976H24.9746V29.224H29.7506V31H18.2306V29.224H22.9826V15.976H18.2306V14.2ZM34.5412 14.2H47.0212V18.592H45.2452V15.976H41.7652V29.224H44.4053V31H37.1332V29.224H39.7732V15.976H36.3172V18.592H34.5412V14.2ZM68.1225 14.2H80.6025V18.592H78.8265V15.976H75.3465V29.224H77.9865V31H70.7145V29.224H73.3545V15.976H69.8985V18.592H68.1225V14.2Z" fill="black"/>
<path fill-rule="evenodd" clip-rule="evenodd" d="M58 1.99926C57.2121 1.99926 56.4319 2.15445 55.7039 2.45598C54.9759 2.75751 54.3145 3.19947 53.7574 3.75662C53.2002 4.31377 52.7583 4.9752 52.4567 5.70316C52.1552 6.43111 52 7.21133 52 7.99926C52 8.78719 52.1552 9.56741 52.4567 10.2954C52.7583 11.0233 53.2002 11.6847 53.7574 12.2419C54.3145 12.7991 54.9759 13.241 55.7039 13.5425C56.4319 13.8441 57.2121 13.9993 58 13.9993C59.5913 13.9993 61.1174 13.3671 62.2426 12.2419C63.3679 11.1167 64 9.59056 64 7.99926C64 6.40796 63.3679 4.88184 62.2426 3.75662C61.1174 2.6314 59.5913 1.99926 58 1.99926ZM50 7.99926C50.0001 6.45971 50.4445 4.9529 51.2798 3.65964C52.1151 2.36638 53.3058 1.3416 54.709 0.708272C56.1123 0.0749417 57.6684 -0.140037 59.1908 0.089132C60.7132 0.318301 62.1372 0.981882 63.2918 2.00025C64.4464 3.01862 65.2826 4.34852 65.7002 5.83037C66.1177 7.31221 66.0988 8.88307 65.6457 10.3544C65.1926 11.8258 64.3246 13.1352 63.1458 14.1254C61.967 15.1157 60.5275 15.7448 59 15.9373V26.9993C59 27.2645 58.8946 27.5188 58.7071 27.7064C58.5196 27.8939 58.2652 27.9993 58 27.9993C57.7348 27.9993 57.4804 27.8939 57.2929 27.7064C57.1054 27.5188 57 27.2645 57 26.9993V15.9393C55.0659 15.6956 53.2874 14.7541 51.9984 13.2917C50.7095 11.8293 49.9988 9.94862 50 7.99926ZM54.986 25.1473C55.0294 25.4087 54.9672 25.6768 54.813 25.8924C54.6589 26.108 54.4254 26.2537 54.164 26.2973C52.74 26.5333 51.604 26.8873 50.854 27.2833C50.5781 27.415 50.3276 27.5945 50.114 27.8133C50.0656 27.866 50.027 27.9269 50 27.9933V27.9993L50.004 28.0153L50.036 28.0813C50.1144 28.1974 50.2126 28.299 50.326 28.3813C50.656 28.6413 51.196 28.9213 51.952 29.1713C53.454 29.6713 55.592 29.9993 58 29.9993C60.408 29.9993 62.546 29.6733 64.048 29.1713C64.804 28.9193 65.344 28.6413 65.674 28.3813C65.7882 28.2991 65.887 28.1976 65.966 28.0813L65.996 28.0153L66 27.9993V27.9913C65.973 27.9249 65.9344 27.864 65.886 27.8113C65.6723 27.5932 65.4218 27.4144 65.146 27.2833C64.394 26.8873 63.26 26.5333 61.836 26.2973C61.7034 26.2793 61.5757 26.2349 61.4605 26.1666C61.3453 26.0984 61.2451 26.0077 61.1656 25.9C61.0861 25.7923 61.0291 25.6697 60.9979 25.5396C60.9666 25.4094 60.9619 25.2743 60.9838 25.1422C61.0058 25.0102 61.054 24.8839 61.1257 24.7709C61.1974 24.6578 61.291 24.5603 61.4011 24.4841C61.5112 24.4079 61.6354 24.3546 61.7664 24.3273C61.8975 24.3 62.0327 24.2993 62.164 24.3253C63.704 24.5793 65.068 24.9813 66.078 25.5133C67 25.9993 68 26.7993 68 27.9993C68 28.8513 67.48 29.5033 66.912 29.9533C66.332 30.4093 65.552 30.7793 64.68 31.0693C62.924 31.6553 60.562 31.9993 58 31.9993C55.438 31.9993 53.076 31.6553 51.32 31.0693C50.448 30.7793 49.668 30.4093 49.088 29.9533C48.52 29.5033 48 28.8513 48 27.9993C48 26.8013 49 25.9993 49.922 25.5133C50.932 24.9813 52.296 24.5793 53.836 24.3253C54.0975 24.2819 54.3655 24.3441 54.5811 24.4982C54.7968 24.6524 54.9424 24.8858 54.986 25.1473Z" fill="black"/>
</svg>
