<svg width="20" height="32" viewBox="0 0 20 32" fill="none" xmlns="http://www.w3.org/2000/svg">
<path fill-rule="evenodd" clip-rule="evenodd" d="M10 1.99926C9.21207 1.99926 8.43185 2.15445 7.7039 2.45598C6.97595 2.75751 6.31451 3.19947 5.75736 3.75662C5.20021 4.31377 4.75825 4.9752 4.45672 5.70316C4.15519 6.43111 4 7.21133 4 7.99926C4 8.78719 4.15519 9.56741 4.45672 10.2954C4.75825 11.0233 5.20021 11.6847 5.75736 12.2419C6.31451 12.7991 6.97595 13.241 7.7039 13.5425C8.43185 13.8441 9.21207 13.9993 10 13.9993C11.5913 13.9993 13.1174 13.3671 14.2426 12.2419C15.3679 11.1167 16 9.59056 16 7.99926C16 6.40796 15.3679 4.88184 14.2426 3.75662C13.1174 2.6314 11.5913 1.99926 10 1.99926ZM2 7.99926C2.00014 6.45971 2.44451 4.9529 3.27979 3.65964C4.11506 2.36638 5.30576 1.3416 6.70901 0.708272C8.11225 0.0749417 9.66844 -0.140037 11.1908 0.089132C12.7132 0.318301 14.1372 0.981882 15.2918 2.00025C16.4464 3.01862 17.2826 4.34852 17.7002 5.83037C18.1177 7.31221 18.0988 8.88307 17.6457 10.3544C17.1926 11.8258 16.3246 13.1352 15.1458 14.1254C13.967 15.1157 12.5275 15.7448 11 15.9373V26.9993C11 27.2645 10.8946 27.5188 10.7071 27.7064C10.5196 27.8939 10.2652 27.9993 10 27.9993C9.73478 27.9993 9.48043 27.8939 9.29289 27.7064C9.10536 27.5188 9 27.2645 9 26.9993V15.9393C7.06593 15.6956 5.28738 14.7541 3.99843 13.2917C2.70948 11.8293 1.99884 9.94862 2 7.99926ZM6.986 25.1473C7.02937 25.4087 6.96715 25.6768 6.81302 25.8924C6.65889 26.108 6.42545 26.2537 6.164 26.2973C4.74 26.5333 3.604 26.8873 2.854 27.2833C2.57809 27.415 2.32758 27.5945 2.114 27.8133C2.06557 27.866 2.02696 27.9269 2 27.9933V27.9993L2.004 28.0153L2.036 28.0813C2.11441 28.1974 2.21256 28.299 2.326 28.3813C2.656 28.6413 3.196 28.9213 3.952 29.1713C5.454 29.6713 7.592 29.9993 10 29.9993C12.408 29.9993 14.546 29.6733 16.048 29.1713C16.804 28.9193 17.344 28.6413 17.674 28.3813C17.7882 28.2991 17.887 28.1976 17.966 28.0813L17.996 28.0153L18 27.9993V27.9913C17.973 27.9249 17.9344 27.864 17.886 27.8113C17.6723 27.5932 17.4218 27.4144 17.146 27.2833C16.394 26.8873 15.26 26.5333 13.836 26.2973C13.7034 26.2793 13.5757 26.2349 13.4605 26.1666C13.3453 26.0984 13.2451 26.0077 13.1656 25.9C13.0861 25.7923 13.0291 25.6697 12.9979 25.5396C12.9666 25.4094 12.9619 25.2743 12.9838 25.1422C13.0058 25.0102 13.054 24.8839 13.1257 24.7709C13.1974 24.6578 13.291 24.5603 13.4011 24.4841C13.5112 24.4079 13.6354 24.3546 13.7664 24.3273C13.8975 24.3 14.0327 24.2993 14.164 24.3253C15.704 24.5793 17.068 24.9813 18.078 25.5133C19 25.9993 20 26.7993 20 27.9993C20 28.8513 19.48 29.5033 18.912 29.9533C18.332 30.4093 17.552 30.7793 16.68 31.0693C14.924 31.6553 12.562 31.9993 10 31.9993C7.438 31.9993 5.076 31.6553 3.32 31.0693C2.448 30.7793 1.668 30.4093 1.088 29.9533C0.52 29.5033 0 28.8513 0 27.9993C0 26.8013 1 25.9993 1.922 25.5133C2.932 24.9813 4.296 24.5793 5.836 24.3253C6.09749 24.2819 6.3655 24.3441 6.58113 24.4982C6.79677 24.6524 6.94239 24.8858 6.986 25.1473Z" fill="black"/>
</svg>
